<svg width="48" height="48" viewBox="0 0 48 48" fill="none" xmlns="http://www.w3.org/2000/svg">
<ellipse cx="24" cy="34.5" rx="15" ry="6.5" fill="#A300CC" stroke="#A300CC" stroke-width="3"/>
<mask id="mask0_393_3187" style="mask-type:alpha" maskUnits="userSpaceOnUse" x="12" y="6" width="24" height="30">
<path d="M22.1245 10.0638L14.2944 31.205C14.1246 31.6637 14.3135 32.171 14.7637 32.3621C16.1212 32.9384 19.2645 34 24 34C28.7355 34 31.8787 32.9384 33.2363 32.3621C33.6865 32.171 33.8754 31.6637 33.7056 31.205L25.8755 10.0638C25.2309 8.32335 22.7691 8.32335 22.1245 10.0638Z" fill="#CC00FF" stroke="#CC00FF" stroke-width="4" stroke-linecap="round"/>
</mask>
<g mask="url(#mask0_393_3187)">
<path d="M22.1245 10.0638L14.2944 31.205C14.1246 31.6637 14.3135 32.171 14.7637 32.3621C16.1212 32.9384 19.2645 34 24 34C28.7355 34 31.8787 32.9384 33.2363 32.3621C33.6865 32.171 33.8754 31.6637 33.7056 31.205L25.8755 10.0638C25.2309 8.32335 22.7691 8.32335 22.1245 10.0638Z" fill="#CC00FF" stroke="#CC00FF" stroke-width="4" stroke-linecap="round"/>
<path d="M35.4805 26.2553C34.2846 26.7945 29.0465 28 24 28C18.9535 28 13.7153 26.7945 12.5195 26.2553C12.175 26.1 12 26 12 26V25.4197V22.7232V21C12 21 12.5364 21.3065 13.5792 21.6796C15.2002 22.2594 20.0447 23 24 23C27.9553 23 32.7998 22.2594 34.4208 21.6796C35.4636 21.3065 36 21 36 21V22.7232V25.4197V26C36 26 35.825 26.1 35.4805 26.2553Z" fill="#EEAAFF"/>
<path d="M35.4805 16.2553C34.2846 16.7945 29.0465 17.7232 24 17.7232C18.9535 17.7232 13.7153 16.7945 12.5195 16.2553C12.175 16.1 12 16 12 16V15.4197V12.7232V11C12 11 12.5364 11.3065 13.5792 11.6796C15.2002 12.2594 20.0447 12.7232 24 12.7232C27.9553 12.7232 32.7998 12.2594 34.4208 11.6796C35.4636 11.3065 36 11 36 11V12.7232V15.4197V16C36 16 35.825 16.1 35.4805 16.2553Z" fill="#EEAAFF"/>
</g>
</svg>
