<svg width="48" height="48" viewBox="0 0 48 48" fill="none" xmlns="http://www.w3.org/2000/svg">
<path d="M39 34.5C40.5 37.5 34.5 41 24 41C13.5 41 7.5 37.5 9 34.5C10.5 31.5 15.7157 28 24 28C32.2843 28 37.5 31.5 39 34.5Z" fill="#A300CC" stroke="#A300CC" stroke-width="3"/>
<path d="M24 34.5C28.5264 34.5 31.5981 33.5301 33.046 32.9412C33.5766 32.7254 33.74 32.0955 33.4303 31.6137L29.9509 26.2014C29.6623 25.7525 29.5651 25.2069 29.6809 24.686L30.5 21L33.1886 11.0138C33.4415 10.0743 32.34 9.36355 31.5882 9.98109L20.3543 19.209C20.1211 19.4005 19.9343 19.6423 19.8079 19.9163L14.3842 31.6676C14.1668 32.1385 14.3504 32.6895 14.8289 32.8896C16.2203 33.4715 19.3388 34.5 24 34.5Z" fill="#CC00FF" stroke="#CC00FF" stroke-width="4" stroke-linecap="round"/>
<mask id="mask0_393_3131" style="mask-type:alpha" maskUnits="userSpaceOnUse" x="12" y="7" width="24" height="30">
<path d="M24 34.5C28.5264 34.5 31.5981 33.5301 33.046 32.9412C33.5766 32.7254 33.74 32.0955 33.4303 31.6137L29.9509 26.2014C29.6623 25.7525 29.5651 25.2069 29.6809 24.686L30.5 21L33.1886 11.0138C33.4415 10.0743 32.34 9.36355 31.5882 9.98109L20.3543 19.209C20.1211 19.4005 19.9343 19.6423 19.8079 19.9163L14.3842 31.6676C14.1668 32.1385 14.3504 32.6895 14.8289 32.8896C16.2203 33.4715 19.3388 34.5 24 34.5Z" fill="#CC00FF" stroke="#CC00FF" stroke-width="4" stroke-linecap="round"/>
</mask>
<g mask="url(#mask0_393_3131)">
<path d="M26.5621 21.5345C26.8843 20.6639 28.1157 20.6639 28.4379 21.5345L28.5558 21.8533C28.6571 22.1271 28.8729 22.3429 29.1466 22.4442L29.4655 22.5621C30.3361 22.8843 30.3361 24.1157 29.4655 24.4379L29.1466 24.5558C28.8729 24.6571 28.6571 24.8729 28.5558 25.1466L28.4379 25.4655C28.1157 26.3361 26.8843 26.3361 26.5621 25.4655L26.4442 25.1466C26.3429 24.8729 26.1271 24.6571 25.8534 24.5558L25.5345 24.4379C24.6639 24.1157 24.6639 22.8843 25.5345 22.5621L25.8533 22.4442C26.1271 22.3429 26.3429 22.1271 26.4442 21.8534L26.5621 21.5345Z" fill="#EEAAFF"/>
<path d="M13.5621 25.5345C13.8843 24.6639 15.1157 24.6639 15.4379 25.5345L15.5558 25.8533C15.6571 26.1271 15.8729 26.3429 16.1466 26.4442L16.4655 26.5621C17.3361 26.8843 17.3361 28.1157 16.4655 28.4379L16.1466 28.5558C15.8729 28.6571 15.6571 28.8729 15.5558 29.1466L15.4379 29.4655C15.1157 30.3361 13.8843 30.3361 13.5621 29.4655L13.4442 29.1466C13.3429 28.8729 13.1271 28.6571 12.8534 28.5558L12.5345 28.4379C11.6639 28.1157 11.6639 26.8843 12.5345 26.5621L12.8533 26.4442C13.1271 26.3429 13.3429 26.1271 13.4442 25.8534L13.5621 25.5345Z" fill="#EEAAFF"/>
<path d="M29.5621 32.5345C29.8843 31.6639 31.1157 31.6639 31.4379 32.5345L31.5558 32.8533C31.6571 33.1271 31.8729 33.3429 32.1466 33.4442L32.4655 33.5621C33.3361 33.8843 33.3361 35.1157 32.4655 35.4379L32.1466 35.5558C31.8729 35.6571 31.6571 35.8729 31.5558 36.1466L31.4379 36.4655C31.1157 37.3361 29.8843 37.3361 29.5621 36.4655L29.4442 36.1466C29.3429 35.8729 29.1271 35.6571 28.8534 35.5558L28.5345 35.4379C27.6639 35.1157 27.6639 33.8843 28.5345 33.5621L28.8533 33.4442C29.1271 33.3429 29.3429 33.1271 29.4442 32.8534L29.5621 32.5345Z" fill="#EEAAFF"/>
<path d="M21.5621 13.5345C21.8843 12.6639 23.1157 12.6639 23.4379 13.5345L23.5558 13.8533C23.6571 14.1271 23.8729 14.3429 24.1466 14.4442L24.4655 14.5621C25.3361 14.8843 25.3361 16.1157 24.4655 16.4379L24.1466 16.5558C23.8729 16.6571 23.6571 16.8729 23.5558 17.1466L23.4379 17.4655C23.1157 18.3361 21.8843 18.3361 21.5621 17.4655L21.4442 17.1466C21.3429 16.8729 21.1271 16.6571 20.8534 16.5558L20.5345 16.4379C19.6639 16.1157 19.6639 14.8843 20.5345 14.5621L20.8533 14.4442C21.1271 14.3429 21.3429 14.1271 21.4442 13.8534L21.5621 13.5345Z" fill="#EEAAFF"/>
</g>
</svg>
