<svg width="48" height="48" viewBox="0 0 48 48" fill="none" xmlns="http://www.w3.org/2000/svg">
<path d="M39 33.5C40.5 36.5 34.5 40 24 40C13.5 40 7.5 36.5 9 33.5C10.5 30.5 15.7157 27 24 27C32.2843 27 37.5 30.5 39 33.5Z" fill="#A300CC" stroke="#A300CC" stroke-width="3"/>
<path d="M12.5121 14.2489L15.2012 31.3075C15.2718 31.7558 15.4957 32.1664 15.8892 32.3926C16.9025 32.975 19.3467 34 24 34C28.6533 34 31.0975 32.975 32.1108 32.3926C32.5043 32.1664 32.7282 31.7558 32.7988 31.3075L35.4879 14.2489C35.7213 12.7677 34.2904 11.5242 32.8307 11.8673C30.5324 12.4073 27.2662 13 24 13C20.7338 13 17.4676 12.4073 15.1693 11.8673C13.7096 11.5242 12.2787 12.7677 12.5121 14.2489Z" fill="#CC00FF" stroke="#CC00FF" stroke-width="4" stroke-linecap="round"/>
<mask id="mask0_393_3200" style="mask-type:alpha" maskUnits="userSpaceOnUse" x="10" y="9" width="28" height="27">
<path d="M12.5121 14.2489L15.2012 31.3075C15.2718 31.7558 15.4957 32.1664 15.8892 32.3926C16.9025 32.975 19.3467 34 24 34C28.6533 34 31.0975 32.975 32.1108 32.3926C32.5043 32.1664 32.7282 31.7558 32.7988 31.3075L35.4879 14.2489C35.7213 12.7677 34.2904 11.5242 32.8307 11.8673C30.5324 12.4073 27.2662 13 24 13C20.7338 13 17.4676 12.4073 15.1693 11.8673C13.7096 11.5242 12.2787 12.7677 12.5121 14.2489Z" fill="#CC00FF" stroke="#CC00FF" stroke-width="4" stroke-linecap="round"/>
</mask>
<g mask="url(#mask0_393_3200)">
<path d="M31.5621 14.5345C31.8843 13.6639 33.1157 13.6639 33.4379 14.5345L33.5558 14.8533C33.6571 15.1271 33.8729 15.3429 34.1466 15.4442L34.4655 15.5621C35.3361 15.8843 35.3361 17.1157 34.4655 17.4379L34.1466 17.5558C33.8729 17.6571 33.6571 17.8729 33.5558 18.1466L33.4379 18.4655C33.1157 19.3361 31.8843 19.3361 31.5621 18.4655L31.4442 18.1466C31.3429 17.8729 31.1271 17.6571 30.8534 17.5558L30.5345 17.4379C29.6639 17.1157 29.6639 15.8843 30.5345 15.5621L30.8533 15.4442C31.1271 15.3429 31.3429 15.1271 31.4442 14.8534L31.5621 14.5345Z" fill="#EEAAFF"/>
<path d="M14.5621 13.5345C14.8843 12.6639 16.1157 12.6639 16.4379 13.5345L16.5558 13.8533C16.6571 14.1271 16.8729 14.3429 17.1466 14.4442L17.4655 14.5621C18.3361 14.8843 18.3361 16.1157 17.4655 16.4379L17.1466 16.5558C16.8729 16.6571 16.6571 16.8729 16.5558 17.1466L16.4379 17.4655C16.1157 18.3361 14.8843 18.3361 14.5621 17.4655L14.4442 17.1466C14.3429 16.8729 14.1271 16.6571 13.8534 16.5558L13.5345 16.4379C12.6639 16.1157 12.6639 14.8843 13.5345 14.5621L13.8533 14.4442C14.1271 14.3429 14.3429 14.1271 14.4442 13.8534L14.5621 13.5345Z" fill="#EEAAFF"/>
<path d="M17.5621 20.5345C17.8843 19.6639 19.1157 19.6639 19.4379 20.5345L19.5558 20.8533C19.6571 21.1271 19.8729 21.3429 20.1466 21.4442L20.4655 21.5621C21.3361 21.8843 21.3361 23.1157 20.4655 23.4379L20.1466 23.5558C19.8729 23.6571 19.6571 23.8729 19.5558 24.1466L19.4379 24.4655C19.1157 25.3361 17.8843 25.3361 17.5621 24.4655L17.4442 24.1466C17.3429 23.8729 17.1271 23.6571 16.8534 23.5558L16.5345 23.4379C15.6639 23.1157 15.6639 21.8843 16.5345 21.5621L16.8533 21.4442C17.1271 21.3429 17.3429 21.1271 17.4442 20.8534L17.5621 20.5345Z" fill="#EEAAFF"/>
<path d="M24 34C17.8854 34 14.533 32.6742 13.0169 31.8289C12.3073 31.4332 12 31.1429 12 31.1429V29.8829V29.0507V29C12 29 13.567 30.4806 17.7935 31.3102C19.4382 31.6329 21.4856 31.8571 24 31.8571C26.5144 31.8571 28.5618 31.6329 30.2065 31.3102C34.433 30.4806 36 29 36 29V29.0507V29.8829V31.1429C36 31.1429 35.6927 31.4332 34.9831 31.8289C33.467 32.6742 30.1146 34 24 34Z" fill="#EEAAFF"/>
<path d="M13.0169 31.8289C14.533 32.6742 17.8854 34 24 34C30.1146 34 33.467 32.6742 34.9831 31.8289M13.0169 31.8289C12.3339 31.448 12 30.6856 12 29.8829M13.0169 31.8289C12.3073 31.4332 12 31.1429 12 31.1429V29.8829M12 29.8829V29.0507M12 29.0507C12 31.5671 15.4348 30.8472 17.7935 31.3102M12 29.0507V29C12 29 13.567 30.4806 17.7935 31.3102M17.7935 31.3102C19.4382 31.6329 21.4856 31.8571 24 31.8571C26.5144 31.8571 28.5618 31.6329 30.2065 31.3102M30.2065 31.3102C32.5652 30.8472 36 31.5671 36 29.0507M30.2065 31.3102C34.433 30.4806 36 29 36 29V29.0507M36 29.0507V29.8829M36 29.8829C36 30.6856 35.6661 31.448 34.9831 31.8289M36 29.8829V31.1429C36 31.1429 35.6927 31.4332 34.9831 31.8289" stroke="#EEAAFF" stroke-width="4" stroke-linecap="round"/>
</g>
</svg>
