<svg width="48" height="48" viewBox="0 0 48 48" fill="none" xmlns="http://www.w3.org/2000/svg">
<g clip-path="url(#clip0_373_1695)">
<ellipse cx="14.781" cy="31.5865" rx="5.27876" ry="8.21141" transform="rotate(45 14.781 31.5865)" fill="#DD6D55"/>
<ellipse cx="15.7168" cy="30.6507" rx="3.13087" ry="6.88792" transform="rotate(45 15.7168 30.6507)" fill="#E2A496"/>
<path d="M19.7018 18.6959L6.65955 21.5941C5.72459 21.8019 5.5884 23.0784 6.45849 23.4788L12.2528 26.1448L19.7018 18.6959Z" fill="#CF2A2A"/>
<path d="M27.6717 26.6658L24.7734 39.708C24.5657 40.6429 23.2891 40.7791 22.8888 39.909L20.2227 34.1147L27.6717 26.6658Z" fill="#CF2A2A"/>
<path d="M24.6671 11.9594C24.8956 11.7309 25.1762 11.5611 25.4847 11.4647L35.5394 8.32263C37.0795 7.84135 38.5262 9.28806 38.0449 10.8281L34.9028 20.8828C34.8064 21.1913 34.6366 21.4719 34.4081 21.7004L22.0015 34.107C21.2205 34.888 19.9542 34.888 19.1731 34.107L12.2605 27.1944C11.4795 26.4134 11.4795 25.147 12.2605 24.366L24.6671 11.9594Z" fill="#DD5555"/>
<path d="M37.182 7.9863L32.985 8.95484L37.4127 13.3826L38.3812 9.18555C38.5474 8.46547 37.902 7.82012 37.182 7.9863Z" fill="#CF2A2A"/>
<circle cx="26.7861" cy="19.5814" r="1.87852" transform="rotate(45 26.7861 19.5814)" fill="#7F1A1A"/>
<circle cx="23.244" cy="23.1236" r="1.87852" transform="rotate(45 23.244 23.1236)" fill="#7F1A1A"/>
<circle cx="19.7018" cy="26.6657" r="1.87852" transform="rotate(45 19.7018 26.6657)" fill="#7F1A1A"/>
</g>
<defs>
<clipPath id="clip0_373_1695">
<rect width="48" height="48" fill="white"/>
</clipPath>
</defs>
</svg>
