<svg width="48" height="48" viewBox="0 0 48 48" fill="none" xmlns="http://www.w3.org/2000/svg">
<circle cx="24" cy="19.1429" r="12.1429" fill="#0097FF"/>
<mask id="mask0_373_1032" style="mask-type:alpha" maskUnits="userSpaceOnUse" x="11" y="7" width="26" height="25">
<circle cx="24" cy="19.1429" r="12.1429" fill="#0097FF"/>
</mask>
<g mask="url(#mask0_373_1032)">
<path d="M22.1786 7C20.7619 8.21429 18.1714 10.1571 19.1429 13.0714C20.1143 15.9857 15.5 18.5357 13.6786 18.5357C11.8571 18.5357 10.6429 17.3214 10.6429 17.3214L13.6786 7.60714L22.1786 7Z" fill="#4FE883"/>
<path d="M28.25 7C26.8333 8.41667 24.9714 11.7357 28.8571 13.6786C32.7429 15.6214 32.0952 18.5357 31.2857 19.75C31.4881 21.3691 32.5 24.3643 34.9286 23.3929C37.3571 22.4214 38.7738 20.1548 39.1786 19.1429C38.369 13.881 35.05 4.08572 28.25 7Z" fill="#4FE883"/>
</g>
<rect x="10.6429" y="19.1429" width="26.7143" height="21.8571" rx="1" fill="#D99C40"/>
<path d="M7.50667 27.506L10.3995 19.7917C10.5459 19.4014 10.919 19.1429 11.3359 19.1429H36.6641C37.081 19.1429 37.4541 19.4014 37.6005 19.7917L40.4933 27.506C40.7385 28.1598 40.2552 28.8571 39.557 28.8571H8.443C7.74479 28.8571 7.26152 28.1598 7.50667 27.506Z" fill="#DDA755"/>
<path d="M33.7143 34.9286V37.3571" stroke="#BF8226" stroke-width="2" stroke-linecap="round"/>
<path d="M30.0714 34.9286V37.3571" stroke="#BF8226" stroke-width="2" stroke-linecap="round"/>
</svg>
