<svg width="48" height="48" viewBox="0 0 48 48" fill="none" xmlns="http://www.w3.org/2000/svg">
<rect x="9" y="9" width="30" height="30" rx="4" stroke="#808080" stroke-width="4" stroke-linecap="round" stroke-dasharray="12 12"/>
<path d="M17 16L32 32" stroke="#7F7F7F" stroke-width="4" stroke-linecap="round" stroke-linejoin="round"/>
<path fill-rule="evenodd" clip-rule="evenodd" d="M15.0482 19.7666C13.6093 20.7752 12.5 22.1994 12.5 24C12.5 26.2147 14.1783 27.86 16.0839 28.8629C18.0587 29.9023 20.6832 30.5 23.5 30.5C24.0254 30.5 24.5442 30.4792 25.0533 30.4386L20.0926 25.1472C20.2249 25.9525 20.4935 26.6828 20.8618 27.2857C19.5389 27.0639 18.384 26.6834 17.4811 26.2082C15.9484 25.4015 15.5 24.5467 15.5 24C15.5 23.4974 15.8789 22.7345 17.1308 21.988L15.0482 19.7666ZM20.1985 22.336C20.3471 21.7343 20.574 21.1854 20.8618 20.7143C20.2243 20.8211 19.6258 20.9649 19.0757 21.1384L16.8539 18.7684C18.1421 18.208 19.6471 17.8163 21.2676 17.6279L26.9953 23.7374C26.9984 23.8243 27 23.9119 27 24C27 25.2578 26.6749 26.407 26.1382 27.2857C27.3938 27.0752 28.4979 26.7217 29.379 26.28L31.4928 28.5347C31.304 28.6508 31.1112 28.7602 30.9161 28.8629C29.9128 29.391 28.7417 29.8051 27.4629 30.0847L20.1985 22.336ZM33.0662 27.2888C33.9251 26.3974 34.5 25.2962 34.5 24C34.5 21.7853 32.8217 20.14 30.9161 19.1371C29.0334 18.1462 26.5602 17.5567 23.8928 17.5039L27.082 20.9056C28.0136 21.1289 28.8379 21.4334 29.5189 21.7918C31.0516 22.5985 31.5 23.4533 31.5 24C31.5 24.2945 31.3699 24.6783 31.0103 25.0959L33.0662 27.2888Z" fill="#7F7F7F"/>
</svg>
