<svg width="48" height="48" viewBox="0 0 48 48" fill="none" xmlns="http://www.w3.org/2000/svg">
<path d="M35.5514 42C34.5818 42 33.7689 41.2145 34.0623 40.3122C34.7945 38.0603 36.9529 36.4286 39.5015 36.4286C42.0502 36.4286 44.2085 38.0603 44.9407 40.3122C45.2341 41.2145 44.4212 42 43.4516 42H35.5514Z" fill="#DD5555"/>
<path d="M42.1349 32.5714C42.1349 33.9916 40.9559 35.1429 39.5015 35.1429C38.0471 35.1429 36.8681 33.9916 36.8681 32.5714C36.8681 31.1513 38.0471 30 39.5015 30C40.9559 30 42.1349 31.1513 42.1349 32.5714Z" fill="#DD5555"/>
<path fill-rule="evenodd" clip-rule="evenodd" d="M35.2222 28.9463C34.3825 29.9114 33.8681 31.1703 33.8681 32.5714C33.8681 33.4595 34.0747 34.2904 34.4399 35.0256C32.9398 36.082 31.7897 37.5995 31.2093 39.3845C31.0376 39.9128 30.9773 40.4337 31.0074 40.9309C30.6491 40.9793 30.3147 41 30.0278 41H10.6667V10.3056C10.6667 8.03889 12.8704 7.15741 13.9722 7H39V14.5556H35.2222V28.9463ZM34.8493 38.7736C34.7644 38.9307 34.667 39.0776 34.5588 39.2148C34.6487 39.0631 34.7456 38.9159 34.8493 38.7736Z" fill="#DD5555"/>
<path d="M35.2222 14.5556H40.7777C41.8823 14.5556 42.7777 13.6601 42.7777 12.5556V10.7778C42.9352 9.83333 42.4 7 39 7C35.5999 7 35.1051 9.83333 35.2222 10.7778L35.2222 14.5556Z" fill="#D52A2A"/>
<path d="M5 36.3889C5 35.2843 5.89543 34.3889 7 34.3889H25.6667C26.7712 34.3889 27.6667 35.2843 27.6667 36.3889V37.9687C27.6667 38.1004 27.6791 38.2315 27.7141 38.3585C27.8896 38.9954 28.5934 41 30.5 41H8.15789C7.94292 41 7.72856 40.9681 7.52948 40.887C6.53512 40.4819 5 39.529 5 38.1667V36.3889Z" fill="#E68080"/>
<rect x="16.3333" y="14.5555" width="13.2222" height="1.88889" rx="0.944444" fill="#E57F7F"/>
<rect x="16.3333" y="24" width="13.2222" height="1.88889" rx="0.944444" fill="#E57F7F"/>
<rect x="16.3333" y="19.2778" width="9.44444" height="1.88889" rx="0.944444" fill="#E57F7F"/>
</svg>
