<svg width="48" height="48" viewBox="0 0 48 48" fill="none" xmlns="http://www.w3.org/2000/svg">
<circle cx="24" cy="24" r="5" fill="#9600BB"/>
<path d="M18 15C18 15 13 17.8235 13 24C13 30.1765 18 33 18 33" stroke="#CC00FF" stroke-width="4" stroke-linecap="round" stroke-linejoin="round"/>
<path d="M14 9C14 9 6 13.7059 6 24C6 34.2941 14 39 14 39" stroke="#E26CFF" stroke-width="4" stroke-linecap="round" stroke-linejoin="round"/>
<path d="M30 15C30 15 35 17.8235 35 24C35 30.1765 30 33 30 33" stroke="#CC00FF" stroke-width="4" stroke-linecap="round" stroke-linejoin="round"/>
<path d="M34 9C34 9 42 13.7059 42 24C42 34.2941 34 39 34 39" stroke="#E26CFF" stroke-width="4" stroke-linecap="round" stroke-linejoin="round"/>
<path d="M34.5638 29.6503C34.6276 29.1586 34.0139 28.8839 33.6897 29.2591L27.7146 36.1731C27.4347 36.497 27.6648 37 28.0929 37H33.431C33.7327 37 33.9656 37.2651 33.9268 37.5643L33.4361 41.3497C33.3724 41.8414 33.9861 42.1161 34.3103 41.7409L40.2854 34.8269C40.5653 34.503 40.3352 34 39.9071 34H34.569C34.2673 34 34.0344 33.7349 34.0731 33.4357L34.5638 29.6503Z" fill="#DDA755"/>
<path fill-rule="evenodd" clip-rule="evenodd" d="M25.4448 34.2115L31.4199 27.2975C33.6891 24.6716 37.9851 26.5942 37.539 30.036L37.414 31H39.9071C42.904 31 44.5148 34.521 42.5552 36.7885L36.5801 43.7025C34.3108 46.3284 30.0149 44.4059 30.461 40.9641L30.586 40H28.0929C25.096 40 23.4852 36.479 25.4448 34.2115ZM33.4361 41.3497C33.3724 41.8414 33.9861 42.1161 34.3103 41.7409L40.2854 34.8269C40.5653 34.503 40.3352 34 39.9071 34H34.569C34.2673 34 34.0344 33.7349 34.0731 33.4357L34.5638 29.6503C34.6276 29.1586 34.0139 28.884 33.6897 29.2591L27.7146 36.1731C27.4347 36.497 27.6648 37 28.0929 37H33.431C33.7327 37 33.9656 37.2651 33.9268 37.5643L33.4361 41.3497Z" fill="#282828"/>
</svg>
