<svg width="48" height="48" viewBox="0 0 48 48" fill="none" xmlns="http://www.w3.org/2000/svg">
<path d="M19.0621 8.53451C19.3843 7.66389 20.6157 7.66389 20.9379 8.53451L23.0815 14.3277C23.1828 14.6014 23.3986 14.8172 23.6723 14.9185L29.4655 17.0621C30.3361 17.3843 30.3361 18.6157 29.4655 18.9379L23.6723 21.0815C23.3986 21.1828 23.1828 21.3986 23.0815 21.6723L20.9379 27.4655C20.6157 28.3361 19.3843 28.3361 19.0621 27.4655L16.9185 21.6723C16.8172 21.3986 16.6014 21.1828 16.3277 21.0815L10.5345 18.9379C9.66389 18.6157 9.66389 17.3843 10.5345 17.0621L16.3277 14.9185C16.6014 14.8172 16.8172 14.6014 16.9185 14.3277L19.0621 8.53451Z" fill="#CC00FF"/>
<path d="M30.5621 25.5345C30.8843 24.6639 32.1157 24.6639 32.4379 25.5345L33.6362 28.773C33.7375 29.0467 33.9533 29.2625 34.227 29.3638L37.4655 30.5621C38.3361 30.8843 38.3361 32.1157 37.4655 32.4379L34.227 33.6362C33.9533 33.7375 33.7375 33.9533 33.6362 34.227L32.4379 37.4655C32.1157 38.3361 30.8843 38.3361 30.5621 37.4655L29.3638 34.227C29.2625 33.9533 29.0467 33.7375 28.773 33.6362L25.5345 32.4379C24.6639 32.1157 24.6639 30.8843 25.5345 30.5621L28.773 29.3638C29.0467 29.2625 29.2625 29.0467 29.3638 28.773L30.5621 25.5345Z" fill="#AF00DB"/>
</svg>
