<svg width="48" height="48" viewBox="0 0 48 48" fill="none" xmlns="http://www.w3.org/2000/svg">
<path d="M35.2222 37.2222C35.2222 40.2444 31.7593 41 30.0278 41H10.6667V10.3056C10.6667 8.03889 12.8704 7.15741 13.9722 7H39V14.5556H35.2222V37.2222Z" fill="#B7E2FF"/>
<path d="M35.2222 14.5556H40.7777C41.8823 14.5556 42.7777 13.6601 42.7777 12.5556V10.7778C42.9352 9.83333 42.4 7 39 7C35.5999 7 35.1051 9.83333 35.2222 10.7778L35.2222 14.5556Z" fill="#0079CC"/>
<path d="M5 36.3889C5 35.2843 5.89543 34.3889 7 34.3889H25.6667C26.7712 34.3889 27.6667 35.2843 27.6667 36.3889V37.9687C27.6667 38.1004 27.6791 38.2315 27.7141 38.3585C27.8896 38.9954 28.5934 41 30.5 41H8.15789C7.94292 41 7.72856 40.9681 7.52948 40.887C6.53512 40.4819 5 39.529 5 38.1667V36.3889Z" fill="#66C1FF"/>
<rect x="16.3333" y="14.5555" width="13.2222" height="1.88889" rx="0.944444" fill="#66C1FF"/>
<rect x="16.3333" y="24" width="13.2222" height="1.88889" rx="0.944444" fill="#66C1FF"/>
<rect x="16.3333" y="19.2778" width="9.44444" height="1.88889" rx="0.944444" fill="#66C1FF"/>
</svg>
