<svg width="48" height="48" viewBox="0 0 48 48" fill="none" xmlns="http://www.w3.org/2000/svg">
<path fill-rule="evenodd" clip-rule="evenodd" d="M24 41C33.3888 41 41 33.3888 41 24C41 14.6112 33.3888 7 24 7C14.6112 7 7 14.6112 7 24C7 33.3888 14.6112 41 24 41ZM24 36C30.6274 36 36 30.6274 36 24C36 17.3726 30.6274 12 24 12C17.3726 12 12 17.3726 12 24C12 30.6274 17.3726 36 24 36Z" fill="#6AC2FF"/>
<path d="M16 24L32 24" stroke="#6AC2FF" stroke-width="4" stroke-linecap="round"/>
<path d="M24 16L24 32" stroke="#6AC2FF" stroke-width="4" stroke-linecap="round"/>
<path d="M18.3431 18.3431L29.6569 29.6568" stroke="#6AC2FF" stroke-width="4" stroke-linecap="round"/>
<path d="M29.6569 18.3431L18.3431 29.6568" stroke="#6AC2FF" stroke-width="4" stroke-linecap="round"/>
</svg>
